<svg xmlns="http://www.w3.org/2000/svg" viewBox="0 0 252 240.9">
	<g clip-path="url(#clipPath46)" transform="matrix(3.5278 0 0 -3.5278 -669 1899)">
		<path fill="#666364"
			d="m189.7 485.5 1.2 1.4c1-1 2.1-1.5 3.5-1.5 1.2 0 2 .6 2 1.4 0 .8-.5 1.3-2.6 1.7-2.3.6-3.6 1.3-3.6 3.3 0 2 1.5 3.3 3.7 3.3 1.6 0 3-.5 4-1.4l-1-1.5a5 5 0 0 1-3 1.2c-1.1 0-1.8-.6-1.8-1.4 0-.8.5-1.2 2.6-1.7 2.4-.6 3.6-1.4 3.6-3.3 0-2-1.7-3.3-4-3.3a6.8 6.8 0 0 0-4.6 1.8m11.2 9.4h8.1v-1.7h-6.2v-2.9h5.5v-1.7h-5.5v-3h6.3V484H201zm10.8 0h1.8l6-7.6v7.6h1.8v-11h-1.6l-6 7.8V484h-2zm19.5-6.6-2 4.4-1.8-4.4zm-2.8 6.7h1.8l4.9-11.1h-2l-1.2 2.6h-5.2l-1.2-2.6h-2zm10.8-1.9v-7.5h2.2c2.3 0 3.8 1.6 3.8 3.8 0 2.2-1.5 3.8-3.8 3.8zm-2 1.8h4.2c3.4 0 5.8-2.4 5.8-5.5s-2.4-5.5-5.8-5.5h-4.2zm21.7-5.5c0 2.1-1.5 4-3.7 4s-3.8-1.8-3.8-4 1.6-4 3.8-4c2.2 0 3.7 1.8 3.7 4m-9.5 0c0 3.1 2.4 5.7 5.8 5.7s5.8-2.6 5.8-5.7-2.4-5.7-5.8-5.7a5.6 5.6 0 0 0-5.8 5.7m-54.3-16.2-1.3 3.2-1.4-3.2zm-2 4.8h1.3l3.5-7.9h-1.5l-.8 2H192l-.8-2h-1.4zm9.7-4c1 0 1.6.6 1.6 1.4 0 .8-.6 1.3-1.6 1.3h-2V474zm-3.4 4h3.5c1 0 1.8-.3 2.3-.8.4-.5.6-1 .6-1.7 0-1.3-.8-2.1-1.9-2.4l2.2-3h-1.7l-1.9 2.8h-1.7V470h-1.4zm8-4a4 4 0 0 0 4 4c1.4 0 2.2-.3 3-1l-.9-1a3 3 0 0 1-2.2.8c-1.4 0-2.5-1.2-2.5-2.7 0-1.7 1-2.9 2.7-2.9.7 0 1.4.3 1.8.6v1.5h-2v1.2h3.4v-3.3a5 5 0 0 0-3.3-1.2c-2.4 0-4 1.7-4 4m9.3 4h5.8v-1.3H218v-2h4v-1.2h-4v-2.1h4.5V470h-5.8zm7.7 0h1.2l4.2-5.5v5.4h1.4v-7.8H230l-4.3 5.6V470h-1.3zm11-1.3h-2.6v1.2h6.4v-1.2h-2.5V470h-1.4zm5.5 1.2h1.4v-7.8h-1.4zm3.7 0h1.3l4.1-5.4v5.4h1.4v-7.8h-1.2l-4.3 5.6V470h-1.3zm13.8-4.7-1.4 3.2-1.3-3.2zm-2 4.8h1.3l3.4-7.9h-1.5l-.7 2h-3.7l-.8-2h-1.5z" />
		<path fill="#b7bbbc"
			d="M248.5 503.1a2 2 0 0 0-2 2 2 2 0 1 0 4 0 2 2 0 0 0-2-2m-1.2 5.2a2 2 0 1 0 0 4 2 2 0 0 0 0-4m-2.3 4.6a2 2 0 0 0-2 2 2 2 0 1 0 2-2m-3.2 4a2 2 0 0 0-2 2c0 1.2 1 2.1 2 2.1a2 2 0 0 0 0-4m-4 3.1a2 2 0 0 0 0 4.1 2 2 0 1 0 0-4m-4.6 2.2a2 2 0 1 0 2 2 2 2 0 0 0-2-2m-5.1 1.2a2 2 0 1 0 0 4 2 2 0 0 0 0-4m-5.4 0a2 2 0 0 0-2 2 2 2 0 0 0 4 0 2 2 0 0 0-2-2m-5.2-1.2a2 2 0 0 0-2 2 2 2 0 1 0 2-2m-4.6-2.3a2 2 0 0 0-2 2 2 2 0 0 0 2 2.1 2 2 0 0 0 0-4m-4-3.3a2 2 0 0 0-2 2 2 2 0 0 0 4 0 2 2 0 0 0-2-2m-3.2-4a2 2 0 0 0-2 2 2 2 0 1 0 4 0 2 2 0 0 0-2-2m-2.2-4.6a2 2 0 0 0-2 2 2 2 0 0 0 4 0 2 2 0 0 0-2-2m-1.2-5.2a2 2 0 0 0-2 2 2 2 0 1 0 4 0 2 2 0 0 0-2-2m40.8 0a2 2 0 1 0 0 4.1 2 2 0 0 0 0-4m-1.7 5.4a2 2 0 0 0 0 4 2 2 0 1 0 0-4m-3.2 4.5a2 2 0 0 0-2 2c0 1.2.9 2 2 2a2 2 0 0 0 2-2 2 2 0 0 0-2-2m-4.5 3.4a2 2 0 1 0 0 4 2 2 0 0 0 0-4m-5.4 1.8a2 2 0 1 0 0 4 2 2 0 0 0 0-4m-5.9 0a2 2 0 0 0 0 4 2 2 0 0 0 2-2 2 2 0 0 0-2-2m-5.4-1.8a2 2 0 0 0-2 2 2 2 0 1 0 2-2m-4.4-3.4a2 2 0 0 0-2 2c0 1.2.8 2 2 2a2 2 0 0 0 2-2 2 2 0 0 0-2-2m-3.3-4.5a2 2 0 1 0 0 4 2 2 0 0 0 0-4m-1.7-5.5a2 2 0 1 0 0 4.1 2 2 0 0 0 0-4" />
		<path fill="#6ba3e4"
			d="M237.8 503.1a2 2 0 0 0-2 2 2 2 0 1 0 2-2m-2.4 5.2a2 2 0 0 0-2 2c0 1.2.9 2 2 2a2 2 0 0 0 0-4M231 512a2 2 0 0 0-2 2c0 1.1.8 2 2 2a2 2 0 0 0 2-2 2 2 0 0 0-2-2m-5.7 1.3a2 2 0 1 0 0 4.1 2 2 0 0 0 0-4m-5.7-1.4a2 2 0 1 0 0 4 2 2 0 0 0 2-2c0-1.1-.9-2-2-2m-4.3-3.6a2 2 0 0 0 0 4 2 2 0 0 0 0-4m-2.4-5.2a2 2 0 0 0-2 2 2 2 0 0 0 2 2.1 2 2 0 0 0 0-4m19.3 0a2 2 0 1 0 0 4 2 2 0 0 0 0-4m-4 4.1a2 2 0 0 0-2 2 2 2 0 1 0 2-2m-5.9 0a2 2 0 0 0-2 2 2 2 0 0 0 2 2.1 2 2 0 0 0 2-2 2 2 0 0 0-2-2m-4-4.3a2 2 0 0 0-2 2 2 2 0 1 0 2-2m40.7 0a2 2 0 1 0 0 4.1 2 2 0 0 0 0-4m-.9 5.3a2 2 0 0 0 0 4c1.1 0 2-.8 2-2a2 2 0 0 0-2-2m-1.7 5a2 2 0 0 0 0 4.2 2 2 0 0 0 0-4.1m-2.3 4.6a2 2 0 0 0-2 2 2 2 0 1 0 2-2m-3.1 4.3a2 2 0 1 0 0 4 2 2 0 0 0 2-2 2 2 0 0 0-2-2m-3.7 3.7a2 2 0 0 0 0 4 2 2 0 0 0 2-2 2 2 0 0 0-2-2m-4.2 3a2 2 0 1 0 0 4.1 2 2 0 0 0 0-4m-4.6 2.4a2 2 0 0 0-2 2c0 1.1.8 2 2 2a2 2 0 0 0 0-4m-5 1.6a2 2 0 0 0-2.1 2 2 2 0 1 0 4 0c0-1-.9-2-2-2m-5.3 1a2 2 0 0 0-2 2 2 2 0 0 0 4 0 2 2 0 0 0-2-2m-5.6 0a2 2 0 0 0-2 2 2 2 0 0 0 4 0 2 2 0 0 0-2-2m-5.4-1a2 2 0 0 0 0 4.1 2 2 0 0 0 2-2 2 2 0 0 0-2-2m-5-1.7a2 2 0 1 0 0 4 2 2 0 0 0 0-4m-4.7-2.5a2 2 0 0 0-2 2 2 2 0 1 0 4 0 2 2 0 0 0-2-2m-4.2-3a2 2 0 0 0-2 2 2 2 0 0 0 2 2c1.1 0 2-.9 2-2a2 2 0 0 0-2-2m-3.6-3.7a2 2 0 1 0 0 4c1 0 2-.9 2-2a2 2 0 0 0-2-2m-3.1-4.3a2 2 0 0 0-2 2 2 2 0 0 0 2 2.1 2 2 0 0 0 0-4m-2.4-4.7a2 2 0 0 0-2 2c0 1.1.9 2 2 2a2 2 0 0 0 2-2 2 2 0 0 0-2-2m-1.7-5a2 2 0 0 0-2 2 2 2 0 0 0 2 2c1.2 0 2-1 2-2a2 2 0 0 0-2-2m-.8-5.5a2 2 0 1 0 0 4.1 2 2 0 0 0 0-4m62 0a2 2 0 0 0-2 2 2 2 0 1 0 4.1 0 2 2 0 0 0-2-2m-1 5.2a2 2 0 0 0-2 2c0 1.2.9 2 2 2a2 2 0 1 0 0-4m-2 5a2 2 0 1 0 2.1 2 2 2 0 0 0-2-2m-2.8 4.3a2 2 0 0 0 0 4.1 2 2 0 0 0 0-4m-3.4 3.8a2 2 0 1 0 0 4 2 2 0 0 0 0-4m-4.1 3a2 2 0 0 0-2 2.1c0 1.2.8 2 2 2a2 2 0 0 0 0-4m-4.7 2.4a2 2 0 0 0 0 4c1.1 0 2-.9 2-2a2 2 0 0 0-2-2m-5 1.4a2 2 0 0 0-2.1 2 2 2 0 0 0 4 0 2 2 0 0 0-2-2m-5.4.6a2 2 0 0 0-2 2 2 2 0 1 0 2-2m-5.5-.6a2 2 0 1 0 0 4.1c1.2 0 2-.9 2-2a2 2 0 0 0-2-2m-5-1.5a2 2 0 0 0-2 2 2 2 0 0 0 2 2 2 2 0 0 0 2-2 2 2 0 0 0-2-2m-4.7-2.4a2 2 0 1 0 0 4 2 2 0 0 0 0-4m-4.1-3.2a2 2 0 1 0 0 4.1 2 2 0 0 0 2-2 2 2 0 0 0-2-2m-3.5-3.9a2 2 0 0 0-2 2c0 1.2 1 2.1 2 2.1a2 2 0 0 0 0-4m-2.7-4.5a2 2 0 0 0-2 2 2 2 0 0 0 4 0 2 2 0 0 0-2-2m-2-4.9a2 2 0 1 0 0 4 2 2 0 0 0 2.1-2c0-1-.9-2-2-2m-1-5.3a2 2 0 0 0-2 2 2 2 0 1 0 4 0 2 2 0 0 0-2-2" />
	</g>
</svg>